<svg width="199" height="40" viewBox="0 0 199 40" fill="none" xmlns="http://www.w3.org/2000/svg" aria-label="Octogen">
  <path d="M4.74337 4.04475C10.2509 -1.39549 19.1258 -1.34089 24.5662 4.16652L29.2813 8.93935L22.051 16.081L20.5273 16.1327L19.369 14.8934L18.2107 16.1327L16.6311 16.0793L4.74337 4.04475Z" fill="#EC4899"/>
  <path d="M16.5395 16.7864L16.573 17.7707L15.3336 18.9291L16.573 20.0874L16.5323 21.2856L4.05435 33.6358C-1.39128 28.1334 -1.34534 19.2582 4.15702 13.8126L8.92561 9.09319L16.5395 16.7864Z" fill="#3B82F6"/>
  <path d="M21.5696 21.7598L33.8464 34.1885C28.3388 39.6289 19.4636 39.5743 14.0232 34.0667L9.30849 29.2939L16.9266 21.7683L18.2109 21.725L19.3692 22.9644L20.5275 21.725L21.5696 21.7598Z" fill="#EF4444"/>
  <path d="M34.5575 4.59778C40.0031 10.1001 39.9568 18.9754 34.4544 24.421L29.6863 29.1404L22.2162 21.5927L22.1657 20.0869L23.4047 18.929L22.1657 17.7707L22.1971 16.8296L34.5575 4.59778Z" fill="#22C55E"/>
  <path d="M60.0385 34.1007C57.3178 34.1007 54.9743 33.5081 53.0079 32.3229C51.0684 31.1107 49.5734 29.3867 48.5228 27.1509C47.4723 24.9151 46.947 22.2483 46.947 19.1506C46.947 16.0528 47.4723 13.386 48.5228 11.1502C49.5734 8.88747 51.0684 7.15001 53.0079 5.93784C54.9743 4.72566 57.3178 4.11957 60.0385 4.11957C62.7861 4.11957 65.1296 4.72566 67.0691 5.93784C69.0355 7.15001 70.544 8.88747 71.5946 11.1502C72.6451 13.386 73.1704 16.0528 73.1704 19.1506C73.1704 22.2483 72.6451 24.9151 71.5946 27.1509C70.544 29.3867 69.0355 31.1107 67.0691 32.3229C65.1296 33.5081 62.7861 34.1007 60.0385 34.1007ZM60.0385 30.7066C62.0319 30.7066 63.7289 30.2487 65.1296 29.3328C66.5573 28.417 67.6483 27.0971 68.4025 25.3731C69.1568 23.6491 69.5339 21.5749 69.5339 19.1506C69.5339 16.7262 69.1568 14.652 68.4025 12.9281C67.6483 11.1771 66.5573 9.84374 65.1296 8.92787C63.7289 7.98507 62.0319 7.51367 60.0385 7.51367C58.0721 7.51367 56.375 7.98507 54.9474 8.92787C53.5466 9.84374 52.4691 11.1771 51.7149 12.9281C50.9606 14.652 50.5835 16.7262 50.5835 19.1506C50.5835 21.5749 50.9606 23.6491 51.7149 25.3731C52.4691 27.0971 53.5466 28.417 54.9474 29.3328C56.375 30.2487 58.0721 30.7066 60.0385 30.7066Z" fill="#E2E8F0"/>
  <path d="M86.7439 33.9391C84.7506 33.9391 83.0131 33.4812 81.5316 32.5653C80.077 31.6495 78.9456 30.3565 78.1375 28.6864C77.3294 26.9893 76.9253 25.0094 76.9253 22.7467C76.9253 20.484 77.3294 18.5175 78.1375 16.8474C78.9456 15.1773 80.077 13.8843 81.5316 12.9685C83.0131 12.0257 84.7506 11.5543 86.7439 11.5543C88.3871 11.5543 89.8417 11.8506 91.1078 12.4432C92.4008 13.0089 93.4513 13.8439 94.2594 14.9484C95.0676 16.0528 95.5928 17.3996 95.8353 18.9889L92.2795 19.2314C92.0371 17.8037 91.4176 16.7127 90.4209 15.9585C89.4242 15.1773 88.1986 14.7867 86.7439 14.7867C84.7775 14.7867 83.2421 15.5006 82.1377 16.9282C81.0332 18.329 80.481 20.2685 80.481 22.7467C80.481 25.2249 81.0332 27.1779 82.1377 28.6055C83.2421 30.0063 84.7775 30.7066 86.7439 30.7066C88.1986 30.7066 89.4242 30.3026 90.4209 29.4945C91.4176 28.6864 92.0371 27.4742 92.2795 25.8579L95.8353 26.1004C95.5928 27.6897 95.0676 29.0769 94.2594 30.2622C93.4513 31.4205 92.4008 32.3229 91.1078 32.9694C89.8417 33.6159 88.3871 33.9391 86.7439 33.9391Z" fill="#E2E8F0"/>
  <path d="M106.649 33.4542C104.709 33.4542 103.268 33.0098 102.325 32.1208C101.41 31.2319 100.952 29.8447 100.952 27.959V7.0288H104.346V27.8782C104.346 28.848 104.561 29.5214 104.992 29.8985C105.423 30.2757 106.083 30.4642 106.972 30.4642H110.043V33.4542H106.649ZM97.8 15.0292V12.0391H110.043V15.0292H97.8Z" fill="#E2E8F0"/>
  <path d="M121.962 33.9391C119.995 33.9391 118.271 33.4812 116.79 32.5653C115.308 31.6495 114.163 30.3565 113.355 28.6864C112.547 26.9893 112.143 25.0094 112.143 22.7467C112.143 20.457 112.547 18.4771 113.355 16.807C114.163 15.1369 115.308 13.8439 116.79 12.9281C118.271 12.0122 119.995 11.5543 121.962 11.5543C123.928 11.5543 125.639 12.0122 127.093 12.9281C128.575 13.8439 129.72 15.1369 130.528 16.807C131.336 18.4771 131.74 20.457 131.74 22.7467C131.74 25.0094 131.336 26.9893 130.528 28.6864C129.72 30.3565 128.575 31.6495 127.093 32.5653C125.639 33.4812 123.928 33.9391 121.962 33.9391ZM121.962 30.7066C123.928 30.7066 125.45 30.0063 126.528 28.6055C127.632 27.1779 128.184 25.2249 128.184 22.7467C128.184 20.2685 127.632 18.329 126.528 16.9282C125.45 15.5006 123.928 14.7867 121.962 14.7867C119.995 14.7867 118.46 15.5006 117.356 16.9282C116.251 18.329 115.699 20.2685 115.699 22.7467C115.699 25.2249 116.251 27.1779 117.356 28.6055C118.46 30.0063 119.995 30.7066 121.962 30.7066Z" fill="#E2E8F0"/>
  <path d="M144.083 40C142.548 40 141.16 39.7441 139.921 39.2323C138.682 38.7205 137.645 37.9932 136.81 37.0504C135.975 36.1076 135.409 35.0166 135.113 33.7775L138.669 33.5351C138.992 34.5317 139.558 35.3129 140.366 35.8786C141.201 36.4712 142.44 36.7675 144.083 36.7675C146.023 36.7675 147.504 36.3769 148.528 35.5958C149.578 34.8146 150.104 33.6428 150.104 32.0804V28.6055C149.592 29.7369 148.77 30.6393 147.639 31.3127C146.507 31.9862 145.241 32.3229 143.841 32.3229C142.036 32.3229 140.42 31.8784 138.992 30.9895C137.591 30.1006 136.487 28.8749 135.679 27.3126C134.897 25.7502 134.507 23.9589 134.507 21.9386C134.507 19.8913 134.897 18.1 135.679 16.5646C136.46 15.0022 137.537 13.7766 138.911 12.8877C140.312 11.9987 141.901 11.5543 143.679 11.5543C145.187 11.5543 146.534 11.9044 147.72 12.6048C148.932 13.3052 149.78 14.248 150.265 15.4332V12.0391H153.498V31.9996C153.498 33.6697 153.12 35.0974 152.366 36.2827C151.612 37.4948 150.535 38.4107 149.134 39.0303C147.733 39.6768 146.049 40 144.083 40ZM144.002 29.0904C145.834 29.0904 147.302 28.4574 148.406 27.1913C149.511 25.8983 150.077 24.1474 150.104 21.9386C150.13 20.457 149.888 19.191 149.376 18.1404C148.891 17.0629 148.178 16.2413 147.235 15.6757C146.319 15.083 145.241 14.7867 144.002 14.7867C142.117 14.7867 140.649 15.4332 139.598 16.7262C138.574 17.9923 138.063 19.7297 138.063 21.9386C138.063 24.1474 138.588 25.8983 139.638 27.1913C140.716 28.4574 142.171 29.0904 144.002 29.0904Z" fill="#E2E8F0"/>
  <path d="M167.518 33.9391C165.498 33.9391 163.747 33.4812 162.265 32.5653C160.81 31.6495 159.679 30.3565 158.871 28.6864C158.09 26.9893 157.699 25.0094 157.699 22.7467C157.699 20.484 158.09 18.5175 158.871 16.8474C159.679 15.1773 160.797 13.8843 162.225 12.9685C163.679 12.0257 165.39 11.5543 167.356 11.5543C169.215 11.5543 170.858 11.9987 172.286 12.8877C173.713 13.7496 174.818 15.0157 175.599 16.6858C176.407 18.3559 176.811 20.3897 176.811 22.7871V23.7972H161.255C161.39 26.0869 161.996 27.8109 163.073 28.9692C164.178 30.1275 165.659 30.7066 167.518 30.7066C168.919 30.7066 170.063 30.3834 170.952 29.7369C171.868 29.0635 172.501 28.188 172.851 27.1105L176.488 27.3934C175.922 29.3059 174.845 30.8817 173.255 32.1208C171.693 33.333 169.781 33.9391 167.518 33.9391ZM161.255 20.8072H173.094C172.932 18.733 172.326 17.2111 171.276 16.2413C170.252 15.2716 168.946 14.7867 167.356 14.7867C165.713 14.7867 164.353 15.2985 163.275 16.3222C162.225 17.3188 161.551 18.8138 161.255 20.8072Z" fill="#E2E8F0"/>
  <path d="M181.005 33.4542V12.0391H184.116L184.237 17.4939L183.833 17.1303C184.102 15.8642 184.574 14.8271 185.247 14.019C185.921 13.184 186.729 12.5644 187.672 12.1603C188.641 11.7563 189.678 11.5543 190.783 11.5543C192.426 11.5543 193.773 11.9179 194.823 12.6452C195.901 13.3725 196.696 14.3557 197.207 15.5948C197.746 16.807 198.015 18.1674 198.015 19.6758V33.4542H194.621V20.6456C194.621 19.3257 194.46 18.2212 194.136 17.3323C193.84 16.4164 193.355 15.7295 192.682 15.2716C192.008 14.7867 191.133 14.5443 190.055 14.5443C188.412 14.5443 187.052 15.0696 185.974 16.1201C184.924 17.1437 184.399 18.6522 184.399 20.6456V33.4542H181.005Z" fill="#E2E8F0"/>
</svg>
